<?xml version="1.0" encoding="UTF-8"?>
<svg width="1024px" height="1024px" viewBox="0 0 1024 1024" version="1.1" xmlns="http://www.w3.org/2000/svg" xmlns:xlink="http://www.w3.org/1999/xlink">
    <title>App Store@2x</title>
    <defs>
        <linearGradient x1="0%" y1="0%" x2="100%" y2="100%" id="linearGradient-1">
            <stop stop-color="#EB7A3B" offset="0%"></stop>
            <stop stop-color="#2D75EC" offset="100%"></stop>
        </linearGradient>
        <rect id="path-2" x="0" y="0" width="819" height="819" rx="136"></rect>
        <filter x="-14.5%" y="-10.4%" width="129.1%" height="129.1%" filterUnits="objectBoundingBox" id="filter-3">
            <feOffset dx="0" dy="34" in="SourceAlpha" result="shadowOffsetOuter1"></feOffset>
            <feGaussianBlur stdDeviation="34" in="shadowOffsetOuter1" result="shadowBlurOuter1"></feGaussianBlur>
            <feColorMatrix values="0 0 0 0 0   0 0 0 0 0   0 0 0 0 0  0 0 0 0.5 0" type="matrix" in="shadowBlurOuter1"></feColorMatrix>
        </filter>
    </defs>
    <g id="App-Store" stroke="none" stroke-width="1" fill="none" fill-rule="evenodd">
        <g id="Mac" transform="translate(103, 103)">
            <g id="Rectangle">
                <use fill="black" fill-opacity="1" filter="url(#filter-3)" xlink:href="#path-2"></use>
                <use fill="url(#linearGradient-1)" fill-rule="evenodd" xlink:href="#path-2"></use>
            </g>
            <g id="Group" transform="translate(69.5836, 72.4839)" fill="#FFFFFF" fill-rule="nonzero">
                <path d="M183.926098,137.083871 C213.655131,137.083871 243.177711,137.083871 272.906744,137.083871 C304.287389,137.083871 304.49384,88.5677419 273.319647,88.5677419 C223.977711,88.5677419 174.842228,88.5677419 125.500292,88.5677419 C112.287389,88.5677419 101.139002,99.3032258 101.139002,112.722581 C101.139002,162.064516 101.139002,211.2 101.139002,260.541935 C101.139002,291.922581 149.655131,292.129032 149.655131,260.954839 C149.655131,231.225806 149.655131,201.290323 149.655131,171.56129 C184.545453,206.451613 219.435776,241.341935 254.326098,276.232258 C276.416421,298.322581 310.687389,263.845161 288.390615,241.754839 C253.706744,206.658065 218.816421,171.974194 183.926098,137.083871 Z M575.358357,391.019355 C575.358357,359.63871 526.842228,359.432258 526.842228,390.606452 C526.842228,420.335484 526.842228,450.270968 526.842228,480 C491.951905,445.109677 457.061582,410.219355 422.17126,375.329032 C400.080937,353.23871 365.809969,387.716129 388.106744,409.806452 C422.997066,444.696774 457.680937,479.380645 492.57126,514.270968 C462.842228,514.270968 433.319647,514.270968 403.590615,514.270968 C372.209969,514.270968 372.003518,562.787097 403.177711,562.787097 C452.519647,562.787097 501.655131,562.787097 550.997066,562.787097 C564.209969,562.787097 575.358357,552.051613 575.358357,538.632258 C575.564808,489.496774 575.358357,440.154839 575.358357,391.019355 Z" id="Shape"></path>
                <path d="M675.280937,53.4709677 C658.351905,6.19354839 621.603518,0 578.248679,0 C461.190615,0 344.13255,0 227.074486,0 C182.274486,0 137.474486,0 92.6744856,0 C48.0809372,0 13.3970662,17.1354839 4.93255009,62.7612903 C4.31319525,65.0322581 3.69384041,67.5096774 3.69384041,70.1935484 C3.4873888,72.2580645 3.4873888,74.3225806 3.69384041,75.9741935 C3.69384041,164.129032 3.69384041,252.283871 3.69384041,340.645161 C3.69384041,430.03871 -5.39003056,524.593548 4.93255009,613.574194 C10.7131952,664.154839 57.784163,673.651613 99.0744856,673.651613 C149.035776,673.651613 199.203518,673.651613 249.164808,673.651613 C362.300292,673.651613 475.435776,673.651613 588.57126,673.651613 C632.13255,673.651613 677.345453,655.070968 677.345453,603.251613 C677.345453,572.903226 677.345453,542.76129 677.345453,512.412903 C677.345453,389.367742 677.345453,266.322581 677.345453,143.277419 C677.345453,117.470968 684.364808,78.6580645 675.280937,53.4709677 Z M628.829324,148.851613 C628.829324,210.167742 628.829324,271.277419 628.829324,332.593548 C628.829324,422.812903 628.829324,513.032258 628.829324,603.045161 C628.829324,637.729032 543.977711,625.135484 528.287389,625.135484 C466.97126,625.135484 405.861582,625.135484 344.545453,625.135484 C254.326098,625.135484 164.106744,625.135484 74.0938404,625.135484 C39.2035178,625.135484 52.0035178,540.283871 52.0035178,524.593548 C52.0035178,463.277419 52.0035178,402.167742 52.0035178,340.851613 C52.0035178,250.632258 52.0035178,160.619355 52.0035178,70.4 C56.1325501,34.8903226 133.139002,48.3096774 152.545453,48.3096774 C213.861582,48.3096774 274.97126,48.3096774 336.287389,48.3096774 C426.506744,48.3096774 516.726098,48.3096774 606.739002,48.3096774 C641.422873,48.3096774 628.829324,133.16129 628.829324,148.851613 Z" id="Shape"></path>
            </g>
        </g>
    </g>
</svg>